<?xml version="1.0" encoding="UTF-8"?>
<!-- Generator: visioncortex VTracer 0.6.12 -->
<svg version="1.1" xmlns="http://www.w3.org/2000/svg" width="64" height="64" viewBox="0 0 64 64">
<path d="M0 0 C0.84 0.48 1.67 0.96 2.53 1.45 C3.45 1.97 4.37 2.5 5.32 3.04 C6.26 3.59 7.2 4.14 8.17 4.71 C9.13 5.25 10.09 5.79 11.08 6.35 C18.16 10.44 18.16 10.44 20.42 13.83 C20.92 18.44 20.84 23.07 20.86 27.71 C20.89 28.99 20.93 30.27 20.96 31.59 C21.01 40.91 21.01 40.91 18.49 44.85 C17.47 45.51 16.46 46.16 15.42 46.83 C14.73 47.29 14.04 47.75 13.33 48.22 C10.92 49.77 8.47 51.21 5.99 52.65 C5.15 53.15 4.32 53.65 3.46 54.17 C3.05 54.4 3.05 54.4 0.99 55.6 C0.62 55.82 0.62 55.82 -1.23 56.9 C-5.22 58.48 -8.31 58.37 -12.25 56.69 C-13.12 56.16 -14 55.64 -14.91 55.09 C-15.87 54.52 -16.83 53.95 -17.83 53.36 C-18.82 52.75 -19.81 52.14 -20.83 51.52 C-21.83 50.93 -22.84 50.33 -23.87 49.72 C-31.3 45.25 -31.3 45.25 -33.58 41.83 C-34.08 37.22 -33.99 32.59 -34.01 27.96 C-34.03 27.32 -34.03 27.32 -34.11 24.08 C-34.17 14.77 -34.17 14.77 -31.67 10.82 C-30.65 10.16 -29.63 9.51 -28.58 8.83 C-27.85 8.37 -27.13 7.91 -26.39 7.43 C-23.85 5.85 -21.26 4.4 -18.64 2.96 C-17.76 2.45 -16.88 1.94 -15.97 1.41 C-15.11 0.93 -14.25 0.46 -13.36 -0.03 C-12.59 -0.47 -11.81 -0.9 -11.01 -1.35 C-6.95 -2.71 -3.82 -1.73 0 0 Z M-12.4 7.73 C-13.1 8.13 -13.8 8.53 -14.52 8.93 C-15.24 9.35 -15.96 9.77 -16.7 10.21 C-17.43 10.62 -18.16 11.03 -18.91 11.46 C-24.28 14.53 -24.28 14.53 -26.58 16.83 C-27.19 20.56 -27.18 24.31 -27.26 28.08 C-27.33 29.12 -27.4 30.16 -27.47 31.23 C-27.61 38.75 -27.61 38.75 -24.69 41.8 C-22.38 43.35 -20.07 44.62 -17.58 45.83 C-16.71 46.4 -15.84 46.96 -14.94 47.55 C-14.26 47.95 -13.59 48.35 -12.89 48.77 C-12.21 49.19 -11.52 49.61 -10.82 50.05 C-7.62 51.17 -5.84 50.75 -2.58 49.83 C0.14 48.5 2.68 46.94 5.24 45.33 C5.92 44.92 6.6 44.5 7.3 44.07 C12.22 41.04 12.22 41.04 13.42 39.83 C13.87 36.12 13.93 32.38 14.05 28.65 C14.12 27.6 14.19 26.56 14.26 25.49 C14.45 17.91 14.45 17.91 11.54 14.86 C9.23 13.31 6.93 12.04 4.42 10.83 C3.53 10.28 2.64 9.72 1.72 9.15 C1.37 8.96 1.37 8.96 -0.39 7.96 C-1.1 7.55 -1.81 7.14 -2.53 6.72 C-6.34 5.07 -9 5.79 -12.4 7.73 Z " fill="#C30D23" transform="translate(38.5771484375,4.16748046875)"/>
<path d="M0 0 C2.64 0 5.28 0 8 0 C8 7.59 8 15.18 8 23 C5.36 23 2.72 23 0 23 C0 15.41 0 7.82 0 0 Z " fill="#C30D23" transform="translate(28,25)"/>
<path d="M0 0 C2.64 0 5.28 0 8 0 C8 2.64 8 5.28 8 8 C5.36 8 2.72 8 0 8 C0 5.36 0 2.72 0 0 Z " fill="#C30D23" transform="translate(28,15)"/>
</svg>
