<?xml version="1.0" encoding="UTF-8"?>
<!-- Generator: visioncortex VTracer 0.6.12 -->
<svg version="1.1"
    xmlns="http://www.w3.org/2000/svg" width="64" height="64" viewBox="0 0 64 64">
    <path d="M0 0 C0.9 -0.01 1.81 -0.02 2.74 -0.02 C4.65 -0.03 6.56 -0.04 8.47 -0.03 C11.37 -0.03 14.27 -0.07 17.17 -0.12 C19.03 -0.12 20.89 -0.13 22.75 -0.12 C23.18 -0.13 23.18 -0.13 25.35 -0.17 C31.52 -0.1 35.85 1.33 40.51 5.47 C44.04 10.35 43.98 15.15 43.98 20.96 C43.98 21.41 43.98 21.41 44 23.7 C44.01 25.61 44.01 27.52 44.01 29.43 C44.01 32.33 44.05 35.23 44.09 38.13 C44.1 39.99 44.1 41.85 44.1 43.71 C44.12 44.57 44.13 45.43 44.15 46.31 C44.08 52.48 42.65 56.81 38.51 61.47 C33.63 65 28.83 64.94 23.02 64.94 C22.11 64.95 21.21 64.95 20.27 64.96 C18.37 64.97 16.46 64.97 14.55 64.97 C11.65 64.97 8.75 65.01 5.85 65.05 C3.99 65.06 2.13 65.06 0.27 65.06 C-0.59 65.08 -1.45 65.1 -2.34 65.11 C-8.5 65.04 -12.83 63.61 -17.49 59.47 C-21.03 54.59 -20.96 49.79 -20.96 43.98 C-20.97 43.07 -20.98 42.17 -20.98 41.23 C-20.99 39.33 -21 37.42 -20.99 35.51 C-20.99 32.61 -21.03 29.71 -21.08 26.81 C-21.08 24.95 -21.09 23.09 -21.09 21.23 C-21.1 20.37 -21.12 19.51 -21.14 18.62 C-21.07 12.46 -19.63 8.13 -15.49 3.47 C-10.61 -0.07 -5.81 0 0 0 Z M-2.49 14.47 C-2.49 22.06 -2.49 29.65 -2.49 37.47 C6.67 35.53 6.67 35.53 10.51 32.47 C12.27 26.72 11.22 20.33 10.51 14.47 C6.22 14.47 1.93 14.47 -2.49 14.47 Z M12.51 14.47 C11.81 21.78 11.81 21.78 12.51 25.47 C16.07 28.99 20.75 29.52 25.51 30.47 C25.51 25.19 25.51 19.91 25.51 14.47 C21.22 14.47 16.93 14.47 12.51 14.47 Z M12.51 27.47 C12.51 35.39 12.51 43.31 12.51 51.47 C14.65 51.3 14.65 51.3 25.51 50.47 C27.08 37.57 27.08 37.57 25.51 32.47 C21.23 29.06 18 28.63 12.51 27.47 Z M3.45 36.41 C2.55 36.77 1.65 37.13 0.72 37.5 C-1.49 38.47 -1.49 38.47 -2.49 39.47 C-2.56 41.49 -2.58 43.51 -2.55 45.53 C-2.53 47.49 -2.51 49.45 -2.49 51.47 C-0.35 51.3 -0.35 51.3 10.51 50.47 C10.51 45.19 10.51 39.91 10.51 34.47 C7.83 34.47 5.92 35.4 3.45 36.41 Z " fill="#00AE42" transform="translate(20.4921875,-0.46875)"/>
    <path d="M0 0 C9.16 1.94 9.16 1.94 13 5 C14.77 10.75 13.71 17.14 13 23 C10.86 23.16 10.86 23.16 0 24 C0 16.08 0 8.16 0 0 Z " fill="#FFFFFF" transform="translate(33,27)"/>
    <path d="M0 0 C4.29 0 8.58 0 13 0 C14.57 12.9 14.57 12.9 13 18 C8.72 21.41 5.49 21.84 0 23 C0 15.41 0 7.82 0 0 Z " fill="#FFFFFF" transform="translate(18,14)"/>
    <path d="M0 0 C0 5.28 0 10.56 0 16 C-2.14 16.16 -2.14 16.16 -13 17 C-13.7 8.95 -13.7 8.95 -13 5 C-10.64 2.67 -8.16 1.85 -5 1 C-2 0 -2 0 0 0 Z " fill="#FFFFFF" transform="translate(31,34)"/>
    <path d="M0 0 C4.29 0 8.58 0 13 0 C13 5.28 13 10.56 13 16 C3.37 13.25 3.37 13.25 0 11 C-0.42 7.3 -0.13 3.73 0 0 Z " fill="#FFFFFF" transform="translate(33,14)"/>
</svg>
